<?xml version="1.0" encoding="utf-8"?>
<!-- Generator: Adobe Illustrator 23.0.0, SVG Export Plug-In . SVG Version: 6.00 Build 0)  -->
<svg version="1.1" id="图层_1" xmlns="http://www.w3.org/2000/svg" xmlns:xlink="http://www.w3.org/1999/xlink" x="0px" y="0px"
	 viewBox="0 0 85 85" style="enable-background:new 0 0 85 85;" xml:space="preserve">
<style type="text/css">
	.st0{fill:#FFFFFF;}
</style>
<g>
	<path class="st0" d="M44.8,50.4c0,0,3.1-4.9-1.9-6.9c-3.9-1.6-5.1,4.1-3.3,8.1c1.8,3.9,6.4,4.8,9.5,3.4s7.3-5.2,7.2-13.7
		c-0.1-8.5-8.2-12.6-14.2-12.6c-5.9,0-16.2,6.3-17.4,19.3c-1.1,13,5.9,17.6,11.9,21.4c6,3.8,10.8,5.8,14.3,6.7c0,0-6.3,5.8-18.7,8.3
		C20,86.7,15.5,82.6,10.6,73.7c0,0,6.4,7,13.1,6.2c6.7-0.8,6.9-5.3,6.2-7.9s-5.2-6.7-8.6-2c-1.4,2.1-0.4,4.3,0.5,6.8
		c-3.4-2.3-6.4-4.1-7.2-13.3c1.2,0.6,5.2,1.1,6-1.6c0.7-2.7-2.2-5.9-5.7-3.8c-3.4,2.1-2.7,8.7-2.6,11.7c-3.1-4.2-4.1-9-1.7-17.6
		c1.7,1.2,3.4,2.1,5.5,1.1c2-1,1.8-5.8-0.6-7S9.1,46.9,7.7,50c-1.4,3-1.4,3.5-2.3,7.3C4.9,52.8,5,44.4,10.9,38.9
		c1.5,1.6,2.3,3.1,4.9,2.9c2.6-0.1,3.6-2.9,2.3-5.7c-1.2-2.8-6.4-1.8-7.7-1.1s-4.3,3.2-6.8,6.8c1-3.6,2.5-7.4,4.5-10.3
		s5.3-5.4,9.7-5.8c-1.4,2.7-1.1,4.6,1,6c2.1,1.4,4.9,1,5.6-2c0.7-2.9-0.7-5.7-4.1-6.9s-7.1-2-12.5,0c2.7-2.5,5.8-4.9,10.8-6.4
		c5.1-1.4,8.5-0.7,9.6,0c-1.7,1-2.6,4.6-1,6.3c1.6,1.7,4.6,2.2,6.6-0.3s0.7-6.3-0.9-8.3c-1.6-2-4.6-5.6-13.2-6.2
		c4-1.8,10.4-2.7,15.1-1.3s7.7,3.7,8.8,5.7c-2.3,0.3-4.1,3.3-4.1,5.1c0,1.9,2.9,4.6,6,3.2c3.1-1.5,3.7-3.2,3.7-7.7S48,3.9,42.3,0
		c4.4,1.1,9.4,3.4,13.5,8.1c4.1,4.8,4,8,4,8s-4.8-1.5-6,2.9c-0.8,2.8,3.4,5.8,6.5,4.3c3.1-1.5,3.7-4.2,3.8-7.2
		c0.1-2.9,0.3-6.4-1.3-10.4c2.8,2.9,6.9,8,7.8,12.8c1,4.8-0.5,9.3-0.5,9.3S67.9,25,64.9,27c-2.9,2.1-0.4,5.7,2,6.5s4.4-0.9,5.8-3.5
		c1.3-2.6,2.1-4.6,2.1-10.9c1.4,3.1,2.9,8.8,1.4,14.3C74.7,39,73.1,40,73.1,40s-2-2.6-4.7-0.5c-1.5,0.9-1.4,4.9,1.9,5.2
		s7.8-5,11-13.1c-0.5,7.3-2.1,14.1-6.7,21C70,59.5,62.2,67,57.9,70.7c-4.9-1.3-17.1-5.9-22.4-12.2c-5.3-6.3-4.5-14.7-1-19.1
		c3.4-4.4,10-5.7,13.7-1.7C52.4,42.4,50.1,48,44.8,50.4z"/>
</g>
</svg>
